<?xml version="1.0" encoding="UTF-8"?>
<svg id="Layer_1" xmlns="http://www.w3.org/2000/svg" version="1.1" viewBox="0 0 24 24">
  <!-- Generator: Adobe Illustrator 29.3.1, SVG Export Plug-In . SVG Version: 2.1.0 Build 151)  -->
  <defs>
    <style>
      .st0 {
        fill: #f3f3f3;
      }
    </style>
  </defs>
  <path class="st0" d="M12,1L3,5v6c0,5.5,3.8,10.7,9,12,5.2-1.3,9-6.5,9-12v-6L12,1M12,7c1.4,0,2.8,1.1,2.8,2.5v1.5c.6,0,1.2.6,1.2,1.3v3.5c0,.6-.6,1.2-1.3,1.2h-5.5c-.6,0-1.2-.6-1.2-1.3v-3.5c0-.6.6-1.2,1.2-1.2v-1.5c0-1.4,1.4-2.5,2.8-2.5M12,8.2c-.8,0-1.5.5-1.5,1.3v1.5h3v-1.5c0-.8-.7-1.3-1.5-1.3Z"/>
</svg>