<?xml version="1.0" encoding="UTF-8"?>
<svg id="Layer_1" xmlns="http://www.w3.org/2000/svg" version="1.1" viewBox="0 0 24 24">
  <!-- Generator: Adobe Illustrator 29.3.1, SVG Export Plug-In . SVG Version: 2.1.0 Build 151)  -->
  <defs>
    <style>
      .st0 {
        fill: #f3f3f3;
      }
    </style>
  </defs>
  <path class="st0" d="M11,18h2v-2h-2v2M12,6c-2.2,0-4,1.8-4,4h2c0-1.1.9-2,2-2s2,.9,2,2c0,2-3,1.8-3,5h2c0-2.2,3-2.5,3-5s-1.8-4-4-4M5,3h14c1.1,0,2,.9,2,2v14c0,1.1-.9,2-2,2H5c-1.1,0-2-.9-2-2V5c0-1.1.9-2,2-2Z"/>
</svg>